<svg xmlns="http://www.w3.org/2000/svg" viewBox="0 0 120 120" fill="none">
  <defs>
    <linearGradient id="g" x1="0" y1="0" x2="1" y2="1">
      <stop offset="0" stop-color="#16a34a"/>
      <stop offset="1" stop-color="#0f5132"/>
    </linearGradient>
  </defs>
  <g opacity="0.95">
    <path d="M60 112c-16-6-28-18-34-30C20 66 26 46 44 34s40-12 54 2c14 14 10 36-8 54-10 10-18 16-30 22z" fill="url(#g)"/>
    <path d="M64 18c-6 6-10 12-12 18s-4 12-2 20M86 28c-4 4-8 8-10 14s-2 12 0 18M98 44c-2 2-6 4-8 8s-2 10-2 14" stroke="#fff" stroke-opacity="0.35" stroke-width="2" stroke-linecap="round"/>
    <path d="M60 28c-2 4-2 8-2 12s0 8 2 12" stroke="#064e3b" stroke-opacity="0.5" stroke-width="2" stroke-linecap="round"/>
  </g>
</svg>
