<svg xmlns="http://www.w3.org/2000/svg" width="512" height="512" viewBox="0 0 512 512" preserveAspectRatio="xMidYMid slice">
  <defs>
    <linearGradient id="jungleGradient" x1="0%" y1="0%" x2="100%" y2="100%">
      <stop offset="0%" stop-color="#02140f" />
      <stop offset="50%" stop-color="#05221a" />
      <stop offset="100%" stop-color="#0b2d20" />
    </linearGradient>
    <linearGradient id="leafGradient" x1="0%" y1="0%" x2="100%" y2="100%">
      <stop offset="0%" stop-color="#1aae78" />
      <stop offset="100%" stop-color="#3cffc0" stop-opacity="0.7" />
    </linearGradient>
    <linearGradient id="fernGradient" x1="0%" y1="0%" x2="100%" y2="100%">
      <stop offset="0%" stop-color="#0d7c57" />
      <stop offset="100%" stop-color="#30c78d" />
    </linearGradient>
    <pattern id="leafPattern" patternUnits="userSpaceOnUse" width="256" height="256">
      <g opacity="0.5">
        <path d="M32 32 C48 8 96 8 120 32 C144 56 184 64 200 96 C216 128 192 160 160 160 C128 160 96 136 72 128 C48 120 16 56 32 32 Z" fill="url(#leafGradient)" transform="rotate(-8 128 96)" />
        <path d="M80 200 C104 168 144 152 176 152 C208 152 232 176 232 208 C232 240 208 264 176 264 C144 264 96 232 80 200 Z" fill="url(#fernGradient)" transform="rotate(18 160 208)" />
        <path d="M200 32 C184 64 160 80 144 112 C128 144 120 192 88 208 C56 224 24 200 16 168 C8 136 40 96 72 72 C104 48 216 0 200 32 Z" fill="url(#leafGradient)" transform="rotate(32 96 144)" />
      </g>
      <g opacity="0.35">
        <path d="M0 128 C32 112 80 104 104 128 C128 152 80 200 40 216 C0 232 -32 144 0 128 Z" fill="#37d29a" />
        <path d="M192 96 C216 72 264 72 288 96 C312 120 296 144 272 160 C248 176 208 192 192 160 C176 128 168 120 192 96 Z" fill="#1fb583" />
      </g>
    </pattern>
    <filter id="noise" x="-20%" y="-20%" width="140%" height="140%">
      <feTurbulence type="fractalNoise" baseFrequency="0.9" numOctaves="3" seed="42" />
      <feColorMatrix values="0 0 0 0 0  0 0 0 0 0.2  0 0 0 0 0.1  0 0 0 0.25 0" />
      <feBlend in="SourceGraphic" mode="soft-light" />
    </filter>
  </defs>
  <rect width="512" height="512" fill="url(#jungleGradient)" />
  <rect width="512" height="512" fill="url(#leafPattern)" />
  <rect width="512" height="512" fill="#0a1f16" opacity="0.35" />
  <rect width="512" height="512" fill="#1aa36a" opacity="0.08" filter="url(#noise)" />
</svg>
