<svg xmlns="http://www.w3.org/2000/svg" viewBox="0 0 128 128">
  <defs>
    <linearGradient id="g" x1="0" x2="1" y1="0" y2="1">
      <stop offset="0%" stop-color="#15803d"/>
      <stop offset="100%" stop-color="#16a34a"/>
    </linearGradient>
  </defs>
  <path d="M64 10C44 22 24 42 24 68c0 20 16 36 40 36s40-16 40-36C104 42 84 22 64 10Z" fill="url(#g)" stroke="#065f46" stroke-width="4" stroke-linecap="round" stroke-linejoin="round"/>
  <path d="M64 20v64" stroke="#065f46" stroke-width="3" stroke-linecap="round"/>
  <path d="M64 36c12 4 20 10 28 20" stroke="#065f46" stroke-width="2.5" stroke-linecap="round"/>
  <path d="M64 48c-12 4-20 10-28 20" stroke="#065f46" stroke-width="2.5" stroke-linecap="round"/>
  <path d="M64 28c-10 4-16 8-24 16" stroke="#065f46" stroke-width="2.5" stroke-linecap="round"/>
  <path d="M64 60c10 4 16 8 24 16" stroke="#065f46" stroke-width="2.5" stroke-linecap="round"/>
</svg>
