<svg xmlns="http://www.w3.org/2000/svg" viewBox="0 0 64 64">
  <defs>
    <linearGradient id="g" x1="0" x2="1" y1="0" y2="1">
      <stop offset="0%" stop-color="#15803d"/>
      <stop offset="100%" stop-color="#16a34a"/>
    </linearGradient>
  </defs>
  <path d="M32 6C22 12 12 22 12 34c0 10 8 18 20 18s20-8 20-18C52 22 42 12 32 6Z" fill="url(#g)" stroke="#065f46" stroke-width="2" stroke-linecap="round" stroke-linejoin="round"/>
  <path d="M32 12v32" stroke="#065f46" stroke-width="2" stroke-linecap="round"/>
  <path d="M32 22c6 2 10 5 14 10" stroke="#065f46" stroke-width="1.5" stroke-linecap="round"/>
  <path d="M32 28c-6 2-10 5-14 10" stroke="#065f46" stroke-width="1.5" stroke-linecap="round"/>
  <path d="M32 18c-5 2-8 4-12 8" stroke="#065f46" stroke-width="1.5" stroke-linecap="round"/>
  <path d="M32 34c5 2 8 4 12 8" stroke="#065f46" stroke-width="1.5" stroke-linecap="round"/>
</svg>
